<svg xmlns="http://www.w3.org/2000/svg" xmlns:xlink="http://www.w3.org/1999/xlink" width="1280" height="800" viewBox="0 0 1280 800">
<defs>
<linearGradient id="g_sub" x1="0%" y1="0%" x2="100%" y2="100%"><stop offset="0%" stop-color="#f5576c"/><stop offset="100%" stop-color="#f093fb"/></linearGradient>
<linearGradient id="g_ins" x1="0%" y1="0%" x2="100%" y2="100%"><stop offset="0%" stop-color="#4facfe"/><stop offset="100%" stop-color="#00f2fe"/></linearGradient>
<linearGradient id="g_mem" x1="0%" y1="0%" x2="100%" y2="100%"><stop offset="0%" stop-color="#43e97b"/><stop offset="100%" stop-color="#38f9d7"/></linearGradient>
<linearGradient id="g_pub" x1="0%" y1="0%" x2="100%" y2="100%"><stop offset="0%" stop-color="#667eea"/><stop offset="100%" stop-color="#764ba2"/></linearGradient>
<linearGradient id="g_etc" x1="0%" y1="0%" x2="100%" y2="100%"><stop offset="0%" stop-color="#868f96"/><stop offset="100%" stop-color="#596164"/></linearGradient>
</defs>
<rect x="0" y="0" width="1280" height="800" fill="#ffffff" rx="0"/>
<rect x="0" y="0" width="210" height="800" fill="#f8fafc" rx="0"/>
<line x1="210" y1="0" x2="210" y2="800" stroke="#e2e8f0" stroke-width="0.5"/>
<rect x="16" y="16" width="28" height="28" fill="#eff6ff" rx="8"/>
<text x="30" y="36" font-family="-apple-system, BlinkMacSystemFont, 'Helvetica Neue', Arial, sans-serif" font-size="14" font-weight="700" fill="#3b82f6" text-anchor="middle">✓</text>
<text x="52" y="36" font-family="-apple-system, BlinkMacSystemFont, 'Helvetica Neue', Arial, sans-serif" font-size="15" font-weight="500" fill="#0f172a" text-anchor="start">DueLoop</text>
<rect x="12" y="70" width="186" height="34" fill="none" rx="8"/>
<text x="42" y="92" font-family="-apple-system, BlinkMacSystemFont, 'Helvetica Neue', Arial, sans-serif" font-size="14" font-weight="400" fill="#64748b" text-anchor="start">홈</text>
<rect x="12" y="110" width="186" height="34" fill="#eff6ff" rx="8"/>
<text x="42" y="132" font-family="-apple-system, BlinkMacSystemFont, 'Helvetica Neue', Arial, sans-serif" font-size="14" font-weight="500" fill="#1d4ed8" text-anchor="start">전체 목록</text>
<rect x="12" y="150" width="186" height="34" fill="none" rx="8"/>
<text x="42" y="172" font-family="-apple-system, BlinkMacSystemFont, 'Helvetica Neue', Arial, sans-serif" font-size="14" font-weight="400" fill="#64748b" text-anchor="start">알림 설정</text>
<rect x="12" y="190" width="186" height="34" fill="none" rx="8"/>
<text x="42" y="212" font-family="-apple-system, BlinkMacSystemFont, 'Helvetica Neue', Arial, sans-serif" font-size="14" font-weight="400" fill="#64748b" text-anchor="start">내 정보</text>
<rect x="210" y="0" width="1070" height="50" fill="#ffffff" rx="0"/>
<text x="226" y="32" font-family="-apple-system, BlinkMacSystemFont, 'Helvetica Neue', Arial, sans-serif" font-size="15" font-weight="500" fill="#0f172a" text-anchor="start">전체 목록</text>
<rect x="1198" y="10" width="30" height="30" fill="#f8fafc" rx="15" stroke="#e2e8f0" stroke-width="0.5"/>
<text x="1213" y="30" font-family="-apple-system, BlinkMacSystemFont, 'Helvetica Neue', Arial, sans-serif" font-size="15" font-weight="400" fill="#64748b" text-anchor="middle">◔</text>
<rect x="1236" y="10" width="30" height="30" fill="#eff6ff" rx="15"/>
<text x="1251" y="30" font-family="-apple-system, BlinkMacSystemFont, 'Helvetica Neue', Arial, sans-serif" font-size="13" font-weight="500" fill="#1d4ed8" text-anchor="middle">김</text>
<line x1="210" y1="50" x2="1280" y2="50" stroke="#e2e8f0" stroke-width="0.5"/>
<rect x="1172" y="10" width="92" height="30" fill="#3b82f6" rx="8"/>
<text x="1218" y="30" font-family="-apple-system, BlinkMacSystemFont, 'Helvetica Neue', Arial, sans-serif" font-size="13" font-weight="500" fill="#ffffff" text-anchor="middle">+ 항목 추가</text>
<rect x="226" y="62" width="950" height="36" fill="#f8fafc" rx="8" stroke="#e2e8f0" stroke-width="0.5"/>
<text x="246" y="85" font-family="-apple-system, BlinkMacSystemFont, 'Helvetica Neue', Arial, sans-serif" font-size="13" font-weight="400" fill="#94a3b8" text-anchor="start">🔍  항목 검색...</text>
<rect x="1184" y="62" width="80" height="36" fill="none" rx="8" stroke="#e2e8f0" stroke-width="0.5"/>
<text x="1224" y="85" font-family="-apple-system, BlinkMacSystemFont, 'Helvetica Neue', Arial, sans-serif" font-size="13" font-weight="400" fill="#64748b" text-anchor="middle">필터</text>
<rect x="226" y="114" width="20" height="20" fill="url(#g_sub)" rx="6"/>
<text x="230" y="128" font-family="-apple-system, BlinkMacSystemFont, 'Helvetica Neue', Arial, sans-serif" font-size="11" font-weight="700" fill="#ffffff" text-anchor="middle">구</text>
<text x="254" y="128" font-family="-apple-system, BlinkMacSystemFont, 'Helvetica Neue', Arial, sans-serif" font-size="12" font-weight="500" fill="#64748b" text-anchor="start">구독</text>
<rect x="226" y="142" width="1038" height="120" fill="#f8fafc" rx="12"/>
<rect x="238" y="152" width="40" height="40" fill="url(#g_sub)" rx="12"/>
<text x="258" y="176" font-family="-apple-system, BlinkMacSystemFont, 'Helvetica Neue', Arial, sans-serif" font-size="15" font-weight="700" fill="#ffffff" text-anchor="middle">N</text>
<text x="290" y="167" font-family="-apple-system, BlinkMacSystemFont, 'Helvetica Neue', Arial, sans-serif" font-size="14" font-weight="500" fill="#0f172a" text-anchor="start">Netflix 구독</text>
<text x="290" y="183" font-family="-apple-system, BlinkMacSystemFont, 'Helvetica Neue', Arial, sans-serif" font-size="12" font-weight="400" fill="#64748b" text-anchor="start">구독 · 오늘</text>
<rect x="1208" y="162" width="38" height="22" fill="#fef2f2" rx="11"/>
<text x="1227" y="177" font-family="-apple-system, BlinkMacSystemFont, 'Helvetica Neue', Arial, sans-serif" font-size="11" font-weight="500" fill="#991b1b" text-anchor="middle">오늘</text>
<line x1="238" y1="198" x2="1252" y2="198" stroke="#e2e8f0" stroke-width="0.5"/>
<rect x="238" y="208" width="40" height="40" fill="url(#g_sub)" rx="12"/>
<text x="258" y="232" font-family="-apple-system, BlinkMacSystemFont, 'Helvetica Neue', Arial, sans-serif" font-size="15" font-weight="700" fill="#ffffff" text-anchor="middle">N</text>
<text x="290" y="223" font-family="-apple-system, BlinkMacSystemFont, 'Helvetica Neue', Arial, sans-serif" font-size="14" font-weight="500" fill="#0f172a" text-anchor="start">Notion 연간</text>
<text x="290" y="239" font-family="-apple-system, BlinkMacSystemFont, 'Helvetica Neue', Arial, sans-serif" font-size="12" font-weight="400" fill="#64748b" text-anchor="start">구독 · 6월 27일</text>
<rect x="1208" y="218" width="44" height="22" fill="#fffbeb" rx="11"/>
<text x="1230" y="233" font-family="-apple-system, BlinkMacSystemFont, 'Helvetica Neue', Arial, sans-serif" font-size="11" font-weight="500" fill="#92400e" text-anchor="middle">5일 후</text>
<line x1="238" y1="254" x2="1252" y2="254" stroke="#e2e8f0" stroke-width="0.5"/>
<rect x="226" y="276" width="20" height="20" fill="url(#g_ins)" rx="6"/>
<text x="230" y="290" font-family="-apple-system, BlinkMacSystemFont, 'Helvetica Neue', Arial, sans-serif" font-size="11" font-weight="700" fill="#ffffff" text-anchor="middle">보</text>
<text x="254" y="290" font-family="-apple-system, BlinkMacSystemFont, 'Helvetica Neue', Arial, sans-serif" font-size="12" font-weight="500" fill="#64748b" text-anchor="start">보험</text>
<rect x="226" y="304" width="1038" height="64" fill="#f8fafc" rx="12"/>
<rect x="238" y="314" width="40" height="40" fill="url(#g_ins)" rx="12"/>
<text x="258" y="338" font-family="-apple-system, BlinkMacSystemFont, 'Helvetica Neue', Arial, sans-serif" font-size="15" font-weight="700" fill="#ffffff" text-anchor="middle">자</text>
<text x="290" y="329" font-family="-apple-system, BlinkMacSystemFont, 'Helvetica Neue', Arial, sans-serif" font-size="14" font-weight="500" fill="#0f172a" text-anchor="start">자동차 보험</text>
<text x="290" y="345" font-family="-apple-system, BlinkMacSystemFont, 'Helvetica Neue', Arial, sans-serif" font-size="12" font-weight="400" fill="#64748b" text-anchor="start">보험 · 6월 25일</text>
<rect x="1208" y="324" width="44" height="22" fill="#fffbeb" rx="11"/>
<text x="1230" y="339" font-family="-apple-system, BlinkMacSystemFont, 'Helvetica Neue', Arial, sans-serif" font-size="11" font-weight="500" fill="#92400e" text-anchor="middle">3일 후</text>
<line x1="238" y1="360" x2="1252" y2="360" stroke="#e2e8f0" stroke-width="0.5"/>
<rect x="226" y="382" width="20" height="20" fill="url(#g_mem)" rx="6"/>
<text x="230" y="396" font-family="-apple-system, BlinkMacSystemFont, 'Helvetica Neue', Arial, sans-serif" font-size="11" font-weight="700" fill="#ffffff" text-anchor="middle">멤</text>
<text x="254" y="396" font-family="-apple-system, BlinkMacSystemFont, 'Helvetica Neue', Arial, sans-serif" font-size="12" font-weight="500" fill="#64748b" text-anchor="start">멤버십</text>
<rect x="226" y="410" width="1038" height="64" fill="#f8fafc" rx="12"/>
<rect x="238" y="420" width="40" height="40" fill="url(#g_mem)" rx="12"/>
<text x="258" y="444" font-family="-apple-system, BlinkMacSystemFont, 'Helvetica Neue', Arial, sans-serif" font-size="15" font-weight="700" fill="#ffffff" text-anchor="middle">헬</text>
<text x="290" y="435" font-family="-apple-system, BlinkMacSystemFont, 'Helvetica Neue', Arial, sans-serif" font-size="14" font-weight="500" fill="#0f172a" text-anchor="start">헬스장 회원권</text>
<text x="290" y="451" font-family="-apple-system, BlinkMacSystemFont, 'Helvetica Neue', Arial, sans-serif" font-size="12" font-weight="400" fill="#64748b" text-anchor="start">멤버십 · 7월 5일</text>
<rect x="1201" y="430" width="51" height="22" fill="#eff6ff" rx="11"/>
<text x="1226" y="445" font-family="-apple-system, BlinkMacSystemFont, 'Helvetica Neue', Arial, sans-serif" font-size="11" font-weight="500" fill="#1e40af" text-anchor="middle">13일 후</text>
<line x1="238" y1="466" x2="1252" y2="466" stroke="#e2e8f0" stroke-width="0.5"/>
<rect x="226" y="488" width="20" height="20" fill="url(#g_pub)" rx="6"/>
<text x="230" y="502" font-family="-apple-system, BlinkMacSystemFont, 'Helvetica Neue', Arial, sans-serif" font-size="11" font-weight="700" fill="#ffffff" text-anchor="middle">공</text>
<text x="254" y="502" font-family="-apple-system, BlinkMacSystemFont, 'Helvetica Neue', Arial, sans-serif" font-size="12" font-weight="500" fill="#64748b" text-anchor="start">공공</text>
<rect x="226" y="516" width="1038" height="64" fill="#f8fafc" rx="12"/>
<rect x="238" y="526" width="40" height="40" fill="url(#g_pub)" rx="12"/>
<text x="258" y="550" font-family="-apple-system, BlinkMacSystemFont, 'Helvetica Neue', Arial, sans-serif" font-size="15" font-weight="700" fill="#ffffff" text-anchor="middle">운</text>
<text x="290" y="541" font-family="-apple-system, BlinkMacSystemFont, 'Helvetica Neue', Arial, sans-serif" font-size="14" font-weight="500" fill="#0f172a" text-anchor="start">운전면허 갱신</text>
<text x="290" y="557" font-family="-apple-system, BlinkMacSystemFont, 'Helvetica Neue', Arial, sans-serif" font-size="12" font-weight="400" fill="#64748b" text-anchor="start">공공 · 7월 15일</text>
<rect x="1201" y="536" width="51" height="22" fill="#eff6ff" rx="11"/>
<text x="1226" y="551" font-family="-apple-system, BlinkMacSystemFont, 'Helvetica Neue', Arial, sans-serif" font-size="11" font-weight="500" fill="#1e40af" text-anchor="middle">23일 후</text>
<line x1="238" y1="572" x2="1252" y2="572" stroke="#e2e8f0" stroke-width="0.5"/>
</svg>